<?xml version="1.0" encoding="utf-8"?>
<!-- Generator: Adobe Illustrator 24.3.0, SVG Export Plug-In . SVG Version: 6.00 Build 0)  -->
<svg version="1.1" id="Layer_1" xmlns="http://www.w3.org/2000/svg" xmlns:xlink="http://www.w3.org/1999/xlink" x="0px" y="0px"
	 viewBox="0 0 361 36.5" style="enable-background:new 0 0 361 36.5;" xml:space="preserve">
<style type="text/css">
	.st0{fill:url(#SVGID_1_);}
	.st1{fill:none;stroke:#000000;stroke-miterlimit:10;}
	.st2{font-family:'IBMPlexSans';}
	.st3{font-size:10px;}
	.st4{fill:#7E0023;}
	.st5{fill:#009966;}
	.st6{fill:#FFDE33;}
	.st7{fill:#FF9933;}
	.st8{fill:#CC0033;}
	.st9{fill:#660099;}
</style>
<g>
	<g>
		<linearGradient id="SVGID_1_" gradientUnits="userSpaceOnUse" x1="0.5" y1="13" x2="360.5005" y2="13">
			<stop  offset="0" style="stop-color:#009966"/>
			<stop  offset="3.393908e-03" style="stop-color:#189F61"/>
			<stop  offset="2.171114e-02" style="stop-color:#93C149"/>
			<stop  offset="3.426498e-02" style="stop-color:#E1D639"/>
			<stop  offset="4.000000e-02" style="stop-color:#FFDE33"/>
			<stop  offset="9.172283e-02" style="stop-color:#FFB233"/>
			<stop  offset="0.1183" style="stop-color:#FF9933"/>
			<stop  offset="0.1312" style="stop-color:#F78133"/>
			<stop  offset="0.1582" style="stop-color:#E24333"/>
			<stop  offset="0.185" style="stop-color:#CC0033"/>
			<stop  offset="0.5" style="stop-color:#660099"/>
			<stop  offset="0.7233" style="stop-color:#770047"/>
			<stop  offset="0.835" style="stop-color:#7E0023"/>
			<stop  offset="1" style="stop-color:#0D0000"/>
		</linearGradient>
		<rect x="0.5" y="0.5" class="st0" width="360" height="25"/>
	</g>
	<rect x="0.5" y="0.5" class="st1" width="360" height="25"/>
	<line class="st1" x1="0.5" y1="25.5" x2="0.5" y2="29.5"/>
	<line class="st1" x1="14.9" y1="25.5" x2="14.9" y2="29.5"/>
	<line class="st1" x1="43.1" y1="25.5" x2="43.1" y2="29.5"/>
	<line class="st1" x1="67.1" y1="25.5" x2="67.1" y2="29.5"/>
	<line class="st1" x1="181.1" y1="25.5" x2="181.1" y2="29.5"/>
	<line class="st1" x1="301.1" y1="25.5" x2="301.1" y2="29.5"/>
	<line class="st1" x1="360.5" y1="25.5" x2="360.5" y2="29.5"/>
	<text transform="matrix(1 0 0 1 1.5 34.0474)" class="st2 st3">0</text>
	<text transform="matrix(1 0 0 1 15.9 34.0473)" class="st2 st3">12</text>
	<text transform="matrix(1 0 0 1 44.1001 34.0474)" class="st2 st3">35.5</text>
	<text transform="matrix(1 0 0 1 68.1002 34.0474)" class="st2 st3">55.5</text>
	<text transform="matrix(1 0 0 1 182.1004 34.0474)" class="st2 st3">150.5</text>
	<text transform="matrix(1 0 0 1 302.1002 34.0474)" class="st2 st3">250.5</text>
	<text transform="matrix(1 0 0 1 341.5008 34.0474)" class="st2 st3">300</text>
</g>
</svg>
